<svg width="32" height="32" viewBox="0 0 32 32" fill="none" xmlns="http://www.w3.org/2000/svg">
<path fill-rule="evenodd" clip-rule="evenodd" d="M30.3346 9.05519C30.6117 9.32243 30.7661 9.6769 30.7661 10.0454C30.7661 10.414 30.6117 10.7685 30.3346 11.0357L18.132 22.6198C17.863 22.8792 17.5393 23.0856 17.1805 23.2267C16.8217 23.3678 16.4353 23.4406 16.0449 23.4406C15.6544 23.4406 15.268 23.3678 14.9092 23.2267C14.5504 23.0856 14.2266 22.8792 13.9577 22.6198L1.66497 10.9518C1.09648 10.4107 1.0891 9.53409 1.6502 8.98484C1.78388 8.85187 1.94597 8.74549 2.1264 8.67231C2.30684 8.59913 2.50176 8.56072 2.69908 8.55945C2.8964 8.55818 3.09188 8.59409 3.27342 8.66494C3.45496 8.73579 3.61866 8.84007 3.75436 8.97132L15.0016 19.649C15.1361 19.7788 15.298 19.8821 15.4775 19.9527C15.657 20.0234 15.8503 20.0598 16.0456 20.0598C16.2409 20.0598 16.4342 20.0234 16.6136 19.9527C16.7932 19.8821 16.955 19.7788 17.0895 19.649L28.2482 9.05654C28.3826 8.92682 28.5444 8.82352 28.7237 8.75293C28.9031 8.68233 29.0962 8.64593 29.2914 8.64593C29.4866 8.64593 29.6798 8.68233 29.8592 8.75293C30.0384 8.82352 30.2003 8.92547 30.3346 9.05519Z" fill="black"/>
</svg>
