<svg width="32" height="32" viewBox="0 0 32 32" fill="none" xmlns="http://www.w3.org/2000/svg">
<path d="M30.7693 15.1436C30.7693 15.1436 22.5666 6.98993 16.0009 6.98993C9.43512 6.98993 1.23237 15.1436 1.23237 15.1436C0.72831 15.6164 0.723879 16.3925 1.23237 16.8563C1.23237 16.8563 9.43512 25.0101 16.0009 25.0101C22.5666 25.0101 30.7693 16.8563 30.7693 16.8563C31.2689 16.3836 31.2778 15.612 30.7693 15.1436ZM16.0633 22.5657C12.4548 22.5657 9.52433 19.6396 9.52433 16.0268C9.52433 12.4139 12.4504 9.48777 16.0633 9.48777C19.6763 9.48777 22.6022 12.4182 22.6022 16.0268C22.6022 19.6353 19.6718 22.5657 16.0633 22.5657Z" fill="black"/>
<path d="M15.9875 11.7983C13.6949 11.7983 11.8348 13.6672 11.8348 15.9643C11.8348 18.2614 13.6949 20.1304 15.9875 20.1304C18.2802 20.1304 20.1402 18.2614 20.1402 15.9643C20.1402 13.6672 18.2802 11.7983 15.9875 11.7983ZM17.5532 15.9777C16.844 15.9777 16.2641 15.3978 16.2641 14.6797C16.2641 13.9616 16.844 13.3818 17.5532 13.3818C18.2623 13.3818 18.8422 13.9616 18.8422 14.6797C18.8422 15.3978 18.2713 15.9777 17.5532 15.9777Z" fill="black"/>
</svg>
