<svg width="32" height="32" viewBox="0 0 32 32" fill="none" xmlns="http://www.w3.org/2000/svg">
<path d="M29.0609 14.7123C27.7732 13.118 22.9904 7.90591 16 7.90591C15.2196 7.90376 14.4403 7.96528 13.6699 8.08986L25.7497 20.231C26.982 19.3103 28.0944 18.2391 29.0609 17.0424C29.3299 16.7137 29.4769 16.3021 29.4769 15.8774C29.4769 15.4526 29.3299 15.041 29.0609 14.7123Z" fill="black"/>
<path d="M26.4855 24.646L19.3112 17.4717C19.0173 18.1001 18.5489 18.6307 17.9618 19.0004C17.3747 19.37 16.6937 19.563 16 19.5565C15.0242 19.5565 14.0884 19.1689 13.3985 18.4789C12.7085 17.7889 12.3209 16.8531 12.3209 15.8774C12.3143 15.1836 12.5074 14.5027 12.877 13.9156C13.2467 13.3285 13.7773 12.8601 14.4057 12.5662L7.23141 5.39185C6.99525 5.21473 6.70311 5.12874 6.40865 5.14966C6.11419 5.17059 5.83715 5.29703 5.62841 5.50577C5.41966 5.71452 5.29322 5.99155 5.2723 6.28602C5.25137 6.58048 5.33736 6.87261 5.51449 7.10878L8.45779 10.0521C6.34071 11.2434 4.4682 12.8247 2.9391 14.7123C2.6701 15.041 2.52313 15.4526 2.52313 15.8774C2.52313 16.3021 2.6701 16.7137 2.9391 17.0424C4.22679 18.6367 9.00966 23.8488 16 23.8488C17.7809 23.8246 19.5443 23.4927 21.2121 22.8677L24.7686 26.3629C24.874 26.5034 25.0084 26.6197 25.1627 26.7038C25.317 26.7879 25.4875 26.8379 25.6628 26.8503C25.838 26.8628 26.0139 26.8375 26.1785 26.776C26.3431 26.7146 26.4926 26.6185 26.6169 26.4942C26.7411 26.37 26.8372 26.2205 26.8986 26.0559C26.9601 25.8913 26.9854 25.7154 26.973 25.5401C26.9605 25.3649 26.9106 25.1943 26.8265 25.04C26.7424 24.8858 26.6261 24.7514 26.4855 24.646Z" fill="black"/>
</svg>
