<svg viewBox="0 0 185 265" fill="none" xmlns="http://www.w3.org/2000/svg">
<rect y="136.816" width="12" height="60" fill="#E2B04A"/>
<path d="M44.7883 196.816L37.647 184.816H0V196.816H44.7883Z" fill="#E2B04A"/>
<path d="M12 24.5905C12 17.2593 7.07959 10.8406 0 8.93649V115.902H12V24.5905Z" fill="#3A8B5C"/>
<path d="M1.07062 9.18777C29.248 19.7698 51.0441 53.0957 51.0443 91.6839C51.0452 91.7105 51.1685 95.0979 50.9075 100.294H38.89C39.0251 97.8354 39.0661 95.792 39.0726 94.3557C39.076 93.583 39.0695 92.9893 39.0628 92.6067C39.0595 92.4158 39.0563 92.2771 39.054 92.1956C39.0529 92.1553 39.0515 92.1284 39.0511 92.1165L39.0521 92.1194L39.0443 91.9046V91.6839C39.0442 70.9343 31.908 52.1083 21.0355 38.6458C15.1247 31.3272 8.29821 25.789 1.07062 22.2493V9.18777Z" fill="#3A8B5C"/>
<rect y="132.359" width="12" height="23.2068" transform="rotate(-90 0 132.359)" fill="#1F3A5F"/>
<path d="M49.0322 96.3596C49.7185 96.3597 50.3994 96.3836 51.0742 96.429V108.475C50.404 108.399 49.7227 108.36 49.0322 108.36C39.0911 108.36 31.0322 116.419 31.0322 126.36C31.0323 130.139 32.1975 133.646 34.1875 136.541L29.8232 149.403C23.2289 143.9 19.0323 135.62 19.0322 126.36C19.0322 109.791 32.4637 96.3596 49.0322 96.3596Z" fill="#1F3A5F"/>
<rect x="172.438" y="136.816" width="12" height="60" fill="#E2B04A"/>
<path d="M139.649 196.816L146.791 184.816H184.438V196.816H139.649Z" fill="#E2B04A"/>
<path d="M172.438 24.5905C172.438 17.2593 177.358 10.8406 184.438 8.93649V115.902H172.438V24.5905Z" fill="#E2B04A"/>
<path d="M183.419 9.18777C155.242 19.7698 133.446 53.0957 133.446 91.6839C133.445 91.7105 133.322 95.0979 133.583 100.294H145.6C145.465 97.8354 145.424 95.792 145.418 94.3557C145.414 93.583 145.421 92.9893 145.427 92.6067C145.431 92.4158 145.434 92.2771 145.436 92.1956C145.437 92.1553 145.439 92.1284 145.439 92.1165L145.438 92.1194L145.446 91.9046V91.6839C145.446 70.9343 152.582 52.1083 163.455 38.6458C169.365 31.3272 176.192 25.789 183.419 22.2493V9.18777Z" fill="#3A8B5C"/>
<rect x="161.231" y="132.359" width="12" height="23.2068" transform="rotate(-90 161.231 132.359)" fill="#3A8B5C"/>
<path d="M135.458 96.3596C134.772 96.3597 134.091 96.3836 133.416 96.429V108.475C134.086 108.399 134.767 108.36 135.458 108.36C145.399 108.36 153.458 116.419 153.458 126.36C153.458 130.139 152.293 133.646 150.303 136.541L154.667 149.403C161.261 143.9 165.458 135.62 165.458 126.36C165.458 109.791 152.026 96.3596 135.458 96.3596Z" fill="#3A8B5C"/>
<path d="M92.2451 0L94.5702 3.0868C99.0597 9.04698 102.346 15.8242 104.245 23.0403V94.6078L101.682 94.0198C98.5867 93.3096 95.4209 92.9512 92.2451 92.9512V0Z" fill="#3A8B5C"/>
<path d="M92.2451 0L89.9199 3.0868C85.4305 9.04698 82.1444 15.8242 80.2451 23.0403V94.6078L82.808 94.0198C85.9035 93.3096 89.0692 92.9512 92.2451 92.9512V0Z" fill="#1F3A5F"/>
<path d="M92.497 121.491L96.4922 129.565H88.5018L92.497 121.491Z" fill="#1F3A5F"/>
<path d="M124.692 153.447L116.618 157.442V149.451L124.692 153.447Z" fill="#1F3A5F"/>
<path d="M60.1828 153.447L68.2559 149.451V157.442L60.1828 153.447Z" fill="#1F3A5F"/>
<path d="M92.497 185.641L96.4922 177.568H88.5018L92.497 185.641Z" fill="#1F3A5F"/>
<circle cx="92.497" cy="153.447" r="38.5" stroke="#1F3A5F" stroke-width="8"/>
<path d="M92.4971 132.256L95.0979 146.316H89.8962L92.4971 132.256Z" fill="#E2B04A"/>
<path d="M92.4971 174.273L89.8962 160.213H95.0979L92.4971 174.273Z" fill="#E2B04A"/>
<path d="M70.947 153.447L85.007 150.846V156.047L70.947 153.447Z" fill="#E2B04A"/>
<path d="M113.927 153.566L99.8675 156.167V150.966L113.927 153.566Z" fill="#E2B04A"/>
<path d="M99.8854 160.569H84.9889V146.098H99.8854V160.569ZM92.4371 148.833C89.952 148.833 87.9372 150.848 87.9371 153.333C87.9371 155.819 89.9519 157.833 92.4371 157.833C94.9224 157.833 96.9371 155.819 96.9371 153.333C96.9371 150.848 94.9224 148.833 92.4371 148.833Z" fill="#1F3A5F"/>
<path d="M78.7419 139.851L88.092 146.282L85.1728 149.201L78.7419 139.851Z" fill="#1F3A5F"/>
<path d="M105.946 139.851L99.5146 149.201L96.5954 146.282L105.946 139.851Z" fill="#1F3A5F"/>
<path d="M78.7418 166.895L85.1728 157.545L88.0919 160.464L78.7418 166.895Z" fill="#1F3A5F"/>
<path d="M105.946 166.895L96.5955 160.464L99.5147 157.545L105.946 166.895Z" fill="#1F3A5F"/>
<circle cx="92.497" cy="153.447" r="50.8978" stroke="#3A8B5C" stroke-width="10"/>
<path d="M94.5008 263.377L68.7459 221.003L46.4793 184.115L83.7293 205.665C90.3613 209.502 98.5791 209.32 105.035 205.194L139.428 183.211L118.763 221.014L94.5008 263.377Z" fill="#3A8B5C" stroke="#3A8B5C"/>
</svg>
