<svg width="32" height="32" viewBox="0 0 32 32" fill="none" xmlns="http://www.w3.org/2000/svg">
<path d="M15.0864 4.64279C15.374 3.76027 16.6261 3.76027 16.9137 4.64279L19.2353 11.7673C19.3639 12.162 19.7328 12.4292 20.149 12.4292H27.6619C28.5925 12.4292 28.9794 13.6167 28.2266 14.1621L22.1485 18.5653C21.8118 18.8092 21.6709 19.2416 21.7995 19.6362L24.1211 26.7607C24.4087 27.6433 23.3956 28.3773 22.6428 27.8318L16.5647 23.4286C16.228 23.1847 15.7721 23.1847 15.4354 23.4286L9.35732 27.8318C8.60444 28.3773 7.59143 27.6433 7.879 26.7607L10.2006 19.6362C10.3292 19.2416 10.1883 18.8092 9.85163 18.5653L3.77358 14.1621C3.02068 13.6167 3.40762 12.4292 4.33825 12.4292H11.8511C12.2673 12.4292 12.6362 12.162 12.7648 11.7673L15.0864 4.64279Z" fill="black"/>
</svg>
