<svg width="32" height="32" viewBox="0 0 32 32" fill="none" xmlns="http://www.w3.org/2000/svg">
<g clip-path="url(#clip0_13_2)">
<g filter="url(#filter0_d_13_2)">
<path fill-rule="evenodd" clip-rule="evenodd" d="M25.1098 12.5838V25.1063C25.1098 26.9955 23.5873 28.5259 21.6834 28.5259H10.3178C8.42523 28.5259 6.89137 26.9978 6.89137 25.1063V12.5838H25.1098ZM22.8323 12.5838V25.1075C22.8323 25.7383 22.3131 26.2485 21.6913 26.2485H10.3098C9.67896 26.2485 9.16881 25.7292 9.16881 25.1075V12.5838H22.8323ZM12.5838 6.89022C12.5838 6.26165 13.0974 5.7515 13.7123 5.7515H18.2877C18.9106 5.7515 19.4162 6.25709 19.4162 6.89022C19.4162 7.5188 18.9026 8.02894 18.2877 8.02894H13.7123C13.0894 8.02894 12.5838 7.52335 12.5838 6.89022ZM12.5838 14.8579C12.5838 14.2304 13.0894 13.7225 13.7226 13.7225C14.3511 13.7225 14.8613 14.2384 14.8613 14.8579V21.697C14.8613 22.3244 14.3557 22.8323 13.7226 22.8323C13.094 22.8323 12.5838 22.3165 12.5838 21.697V14.8579ZM17.1387 14.8579C17.1387 14.2304 17.6443 13.7225 18.2774 13.7225C18.906 13.7225 19.4162 14.2384 19.4162 14.8579V21.697C19.4162 22.3244 18.9106 22.8323 18.2774 22.8323C17.6489 22.8323 17.1387 22.3165 17.1387 21.697V14.8579ZM10.3064 8.02894H5.7424C5.13205 8.02894 4.61279 8.53909 4.61279 9.16766C4.61279 9.80079 5.11839 10.3064 5.7424 10.3064H26.2576C26.868 10.3064 27.3872 9.79624 27.3872 9.16766C27.3872 8.53454 26.8816 8.02894 26.2576 8.02894H21.6936V6.89022C21.6936 5.00792 20.1643 3.47406 18.2774 3.47406H13.7237C11.8425 3.47406 10.3075 5.00336 10.3075 6.89022L10.3064 8.02894Z" fill="black"/>
</g>
</g>
<defs>
<filter id="filter0_d_13_2" x="-5.87901" y="-6.49315" width="43.758" height="46.0355" filterUnits="userSpaceOnUse" color-interpolation-filters="sRGB">
<feFlood flood-opacity="0" result="BackgroundImageFix"/>
<feColorMatrix in="SourceAlpha" type="matrix" values="0 0 0 0 0 0 0 0 0 0 0 0 0 0 0 0 0 0 127 0" result="hardAlpha"/>
<feOffset dy="0.52459"/>
<feGaussianBlur stdDeviation="5.2459"/>
<feColorMatrix type="matrix" values="0 0 0 0 0 0 0 0 0 0 0 0 0 0 0 0 0 0 0.1 0"/>
<feBlend mode="normal" in2="BackgroundImageFix" result="effect1_dropShadow_13_2"/>
<feBlend mode="normal" in="SourceGraphic" in2="effect1_dropShadow_13_2" result="shape"/>
</filter>
<clipPath id="clip0_13_2">
<rect width="32" height="32" fill="white"/>
</clipPath>
</defs>
</svg>
