<svg  viewBox="0 0 20 11" fill="none" xmlns="http://www.w3.org/2000/svg">
<path fill-rule="evenodd" clip-rule="evenodd" d="M19.708 0.366003C19.8956 0.563547 20.0002 0.825575 20.0002 1.098C20.0002 1.37043 19.8956 1.63246 19.708 1.83L11.444 10.393C11.2618 10.5847 11.0426 10.7373 10.7996 10.8416C10.5566 10.9459 10.2949 10.9997 10.0305 10.9997C9.76606 10.9997 9.50439 10.9459 9.26139 10.8416C9.0184 10.7373 8.79915 10.5847 8.61699 10.393L0.29199 1.768C-0.0930097 1.368 -0.0980099 0.720003 0.28199 0.314003C0.372521 0.215708 0.482292 0.137073 0.604486 0.0829792C0.726681 0.0288855 0.85869 0.000488567 0.992319 -0.000449181C1.12595 -0.00138693 1.25834 0.0251545 1.38128 0.077528C1.50423 0.129901 1.61509 0.206988 1.70699 0.304003L9.32399 8.197C9.41508 8.29292 9.52473 8.3693 9.64628 8.42149C9.76782 8.47369 9.89871 8.5006 10.031 8.5006C10.1633 8.5006 10.2942 8.47369 10.4157 8.42149C10.5373 8.3693 10.6469 8.29292 10.738 8.197L18.295 0.367002C18.386 0.271113 18.4956 0.194751 18.617 0.142569C18.7385 0.0903862 18.8693 0.0634756 19.0015 0.0634756C19.1337 0.0634756 19.2645 0.0903862 19.386 0.142569C19.5074 0.194751 19.617 0.270113 19.708 0.366003Z" fill="black"/>
</svg>
