<svg viewBox="0 0 14 13" fill="none" xmlns="http://www.w3.org/2000/svg">
<path d="M6.09503 0.345479C6.2447 -0.115175 6.89641 -0.115175 7.04608 0.34548L8.25441 4.06432C8.32135 4.27033 8.51333 4.40981 8.72994 4.40981H12.6402C13.1245 4.40981 13.3259 5.02962 12.9341 5.31432L9.77062 7.61269C9.59538 7.74001 9.52205 7.96569 9.58898 8.1717L10.7973 11.8905C10.947 12.3512 10.4197 12.7343 10.0279 12.4496L6.86445 10.1512C6.68921 10.0239 6.45191 10.0239 6.27666 10.1512L3.11322 12.4496C2.72137 12.7343 2.19413 12.3512 2.3438 11.8905L3.55213 8.1717C3.61907 7.96569 3.54574 7.74001 3.37049 7.61269L0.207058 5.31432C-0.1848 5.02962 0.0165869 4.40981 0.500949 4.40981H4.41117C4.62779 4.40981 4.81976 4.27033 4.8867 4.06432L6.09503 0.345479Z" fill="currentColor"/>
</svg>
