<svg viewBox="0 0 56 39" fill="none" xmlns="http://www.w3.org/2000/svg">
<path d="M0 38.4546H55.2V35.37V3.03001V0H0V3.03001V35.36V38.4546Z" fill="#FEFEFE"/>
<path d="M23.74 23.03V38.4H31.42V23.03H55.2V15.35H31.42V0H23.74V15.35H0V23.03H23.74Z" fill="#C8102E"/>
<path d="M33.98 12.43V0H55.207V1.91016L33.98 12.43Z" fill="#012169"/>
<path d="M33.98 25.97V38.4H55.2009V36.4863L33.98 25.97Z" fill="#012169"/>
<path d="M21.18 25.97V38.4H0.00665283L0.00665392 36.4849L21.18 25.97Z" fill="#012169"/>
<path d="M21.18 12.43V0H0.0117188V1.97266L21.18 12.43Z" fill="#012169"/>
<path d="M0 12.8H7.65L0 8.96997V12.8Z" fill="#012169"/>
<path d="M55.2 12.8H47.51L55.2 8.95001V12.8Z" fill="#012169"/>
<path d="M55.2 25.6H47.51L55.2 29.45V25.6Z" fill="#012169"/>
<path d="M0 25.6H7.65L0 29.43V25.6Z" fill="#012169"/>
<path d="M55.2 3.25L36.15 12.8H40.41L55.2 5.4V3.25Z" fill="#C8102E"/>
<path d="M19.01 25.6H14.75L0 32.98V35.13L19.05 25.6H19.01Z" fill="#C8102E"/>
<path d="M10.52 12.81H14.78L0 5.40997V7.54997L10.52 12.81Z" fill="#C8102E"/>
<path d="M44.63 25.59H40.37L55.2 33.02V30.88L44.63 25.59Z" fill="#C8102E"/>
</svg>
